<?xml version="1.0" encoding="utf-8"?>
<!-- Generator: Adobe Illustrator 22.0.0, SVG Export Plug-In . SVG Version: 6.00 Build 0)  -->
<svg version="1.1" id="Layer_1" xmlns="http://www.w3.org/2000/svg" xmlns:xlink="http://www.w3.org/1999/xlink" x="0px" y="0px"
	 viewBox="0 0 256 256" style="enable-background:new 0 0 256 256;" xml:space="preserve">
<style type="text/css">
	.st0{fill:#A4C9FF;}
	.st1{fill:#3762CC;}
	.st2{fill:#F9CFCF;}
	.st3{fill:#E0EBFC;}
	.st4{fill:#4671C6;}
	.st5{fill:#6BDDDD;}
	.st6{fill:#F9A7A7;}
	.st7{fill:#FFEA92;}
	.st8{fill:#EAA97D;}
</style>
<g>
	<g>
		<g>
			<path class="st3" d="M207.996,19.947c-20.002,0-20.002-12-40.004-12c-19.999,0-19.999,12-39.998,12c-20,0-20-12-40-12
				c-19.999,0-19.999,12-39.998,12c-19.999,0-19.999-12-39.997-12c0,10.241,0,223.886,0,234.106c0,3.314,2.686,6,6,6h228
				c3.314,0,6-2.686,6-6c0-10.238,0-223.913,0-234.106C227.998,7.947,227.998,19.947,207.996,19.947z"/>
		</g>
	</g>
	<g>
		<g>
			<path class="st0" d="M207.996,59.947c-20.002,0-20.002-12-40.004-12c-19.999,0-19.999,12-39.998,12c-20,0-20-12-40-12
				c-19.999,0-19.999,12-39.998,12c-19.999,0-19.999-12-39.997-12c0,26.127,0,165.758,0,194.106c0,3.314,2.686,6,6,6h228
				c3.314,0,6-2.686,6-6c0-2.844,0-159.646,0-194.106C227.998,47.947,227.998,59.947,207.996,59.947z"/>
		</g>
	</g>
	<g>
		<g>
			<path class="st1" d="M242,250.053H14c-4.411,0-8-3.589-8-8V7.947c0-1.104,0.896-2,2-2c10.553,0,15.878,3.195,21.027,6.285
				c4.897,2.939,9.524,5.715,18.97,5.715s14.072-2.776,18.97-5.715c5.149-3.09,10.475-6.285,21.027-6.285
				c10.554,0,15.879,3.195,21.029,6.285c4.898,2.939,9.524,5.715,18.971,5.715c9.445,0,14.072-2.776,18.97-5.715
				c5.149-3.09,10.475-6.285,21.028-6.285c10.555,0,15.881,3.195,21.031,6.285c4.898,2.939,9.525,5.715,18.973,5.715
				s14.074-2.776,18.973-5.715c5.15-3.09,10.477-6.285,21.031-6.285c1.104,0,2,0.896,2,2v234.106
				C250,246.464,246.411,250.053,242,250.053z M10,9.991v232.062c0,2.206,1.794,4,4,4h228c2.206,0,4-1.794,4-4V9.991
				c-8.126,0.364-12.433,2.948-16.973,5.671c-5.15,3.09-10.477,6.285-21.031,6.285s-15.881-3.195-21.031-6.285
				c-4.898-2.939-9.525-5.715-18.973-5.715c-9.445,0-14.072,2.776-18.97,5.715c-5.149,3.09-10.475,6.285-21.028,6.285
				s-15.879-3.195-21.029-6.285c-4.898-2.939-9.524-5.715-18.971-5.715c-9.445,0-14.071,2.776-18.969,5.715
				c-5.149,3.09-10.475,6.285-21.028,6.285s-15.879-3.195-21.028-6.285C22.43,12.938,18.124,10.355,10,9.991z"/>
		</g>
	</g>
	<g>
		<g>
			<path class="st4" d="M191.45,188.16H64.55c-5.965,0-10.8-4.835-10.8-10.8v-90.3c0-5.965,4.835-10.8,10.8-10.8h126.9
				c5.965,0,10.8,4.835,10.8,10.8v90.3C202.25,183.325,197.415,188.16,191.45,188.16z"/>
		</g>
	</g>
	<g>
		<g>
			<circle class="st5" cx="128" cy="136.86" r="43.8"/>
		</g>
	</g>
	<g>
		<g>
			<circle class="st3" cx="128" cy="136.86" r="33"/>
		</g>
	</g>
	<g>
		<g>
			<path class="st4" d="M128,156.36c-10.753,0-19.5-8.748-19.5-19.5c0-10.753,8.748-19.5,19.5-19.5s19.5,8.748,19.5,19.5
				C147.5,147.613,138.753,156.36,128,156.36z"/>
		</g>
	</g>
	<g>
		<g>
			<path class="st0" d="M138.84,132.21c-5.119,0-9.284-4.165-9.284-9.284c0-5.119,4.165-9.284,9.284-9.284s9.284,4.165,9.284,9.284
				C148.124,128.045,143.96,132.21,138.84,132.21z"/>
		</g>
	</g>
	<g>
		<g>
			<path class="st2" d="M63.65,164.46h-9.9v-55.2h9.9c1.988,0,3.6,1.612,3.6,3.6v48C67.25,162.849,65.638,164.46,63.65,164.46z"/>
		</g>
	</g>
	<g>
		<g>
			<path class="st2" d="M202.25,164.46h-9.9c-1.988,0-3.6-1.612-3.6-3.6v-48c0-1.988,1.612-3.6,3.6-3.6h9.9V164.46z"/>
		</g>
	</g>
	<g>
		<g>
			<rect x="202.25" y="98.46" class="st6" width="15.75" height="10.8"/>
		</g>
	</g>
	<g>
		<g>
			<rect x="202.25" y="164.46" class="st6" width="15.75" height="10.8"/>
		</g>
	</g>
	<g>
		<g>
			<path class="st5" d="M232.4,181.86h-10.8c-1.988,0-3.6-1.612-3.6-3.6v-82.8c0-1.988,1.612-3.6,3.6-3.6h10.8
				c1.988,0,3.6,1.612,3.6,3.6v82.8C236,180.248,234.388,181.86,232.4,181.86z"/>
		</g>
	</g>
	<g>
		<g>
			
				<rect x="38" y="164.46" transform="matrix(-1 -1.224647e-16 1.224647e-16 -1 91.75 339.7205)" class="st6" width="15.75" height="10.8"/>
		</g>
	</g>
	<g>
		<g>
			
				<rect x="38" y="98.46" transform="matrix(-1 -1.224647e-16 1.224647e-16 -1 91.75 207.7202)" class="st6" width="15.75" height="10.8"/>
		</g>
	</g>
	<g>
		<g>
			<path class="st5" d="M23.6,91.86h10.8c1.988,0,3.6,1.612,3.6,3.6v82.8c0,1.988-1.612,3.6-3.6,3.6H23.6
				c-1.988,0-3.6-1.612-3.6-3.6v-82.8C20,93.472,21.612,91.86,23.6,91.86z"/>
		</g>
	</g>
	<g>
		<g>
			<path class="st7" d="M70.881,216.535H52.5c-6.176,0-11.2-5.024-11.2-11.2v-18.862c0-2.209,1.791-4,4-4s4,1.791,4,4v18.862
				c0,1.764,1.436,3.2,3.2,3.2h18.381c2.209,0,4,1.791,4,4S73.09,216.535,70.881,216.535z"/>
		</g>
	</g>
	<g>
		<g>
			<path class="st7" d="M205.5,216.535h-18.861c-2.209,0-4-1.791-4-4s1.791-4,4-4H205.5c1.765,0,3.2-1.436,3.2-3.2v-18.862
				c0-2.209,1.791-4,4-4s4,1.791,4,4v18.862C216.7,211.511,211.676,216.535,205.5,216.535z"/>
		</g>
	</g>
	<g>
		<g>
			<path class="st7" d="M212.7,91.247c-2.209,0-4-1.791-4-4V68.385c0-1.764-1.436-3.2-3.2-3.2h-18.861c-2.209,0-4-1.791-4-4
				s1.791-4,4-4H205.5c6.176,0,11.2,5.024,11.2,11.2v18.862C216.7,89.456,214.909,91.247,212.7,91.247z"/>
		</g>
	</g>
	<g>
		<g>
			<path class="st7" d="M43.3,91.247c-2.209,0-4-1.791-4-4V68.385c0-6.176,5.024-11.2,11.2-11.2h19.064c2.209,0,4,1.791,4,4
				s-1.791,4-4,4H50.5c-1.765,0-3.2,1.436-3.2,3.2v18.862C47.3,89.456,45.509,91.247,43.3,91.247z"/>
		</g>
	</g>
	<g>
		<g>
			<path class="st1" d="M218,111.26h-15.75c-1.104,0-2-0.896-2-2v-10.8c0-1.104,0.896-2,2-2H218c1.104,0,2,0.896,2,2v10.8
				C220,110.365,219.104,111.26,218,111.26z M204.25,107.26H216v-6.8h-11.75V107.26z"/>
		</g>
	</g>
	<g>
		<g>
			<path class="st1" d="M218,177.26h-15.75c-1.104,0-2-0.896-2-2v-10.8c0-1.104,0.896-2,2-2H218c1.104,0,2,0.896,2,2v10.8
				C220,176.365,219.104,177.26,218,177.26z M204.25,173.26H216v-6.8h-11.75V173.26z"/>
		</g>
	</g>
	<g>
		<g>
			<path class="st1" d="M232.4,183.86H221.6c-3.088,0-5.6-2.512-5.6-5.6v-82.8c0-3.087,2.512-5.6,5.6-5.6H232.4
				c3.088,0,5.6,2.512,5.6,5.6v82.8C238,181.348,235.488,183.86,232.4,183.86z M221.6,93.86c-0.882,0-1.6,0.718-1.6,1.6v82.8
				c0,0.882,0.718,1.6,1.6,1.6H232.4c0.882,0,1.6-0.718,1.6-1.6v-82.8c0-0.882-0.718-1.6-1.6-1.6H221.6z"/>
		</g>
	</g>
	<g>
		<g>
			<path class="st1" d="M53.75,177.26H38c-1.104,0-2-0.896-2-2v-10.8c0-1.104,0.896-2,2-2h15.75c1.104,0,2,0.896,2,2v10.8
				C55.75,176.365,54.854,177.26,53.75,177.26z M40,173.26h11.75v-6.8H40V173.26z"/>
		</g>
	</g>
	<g>
		<g>
			<path class="st1" d="M53.75,111.26H38c-1.104,0-2-0.896-2-2v-10.8c0-1.104,0.896-2,2-2h15.75c1.104,0,2,0.896,2,2v10.8
				C55.75,110.365,54.854,111.26,53.75,111.26z M40,107.26h11.75v-6.8H40V107.26z"/>
		</g>
	</g>
	<g>
		<g>
			<path class="st1" d="M34.4,183.86H23.6c-3.088,0-5.6-2.512-5.6-5.6v-82.8c0-3.087,2.512-5.6,5.6-5.6H34.4
				c3.088,0,5.6,2.512,5.6,5.6v82.8C40,181.348,37.488,183.86,34.4,183.86z M23.6,93.86c-0.882,0-1.6,0.718-1.6,1.6v82.8
				c0,0.882,0.718,1.6,1.6,1.6H34.4c0.882,0,1.6-0.718,1.6-1.6v-82.8c0-0.882-0.718-1.6-1.6-1.6H23.6z"/>
		</g>
	</g>
	<g>
		<g>
			<path class="st1" d="M191.45,190.16H64.55c-7.058,0-12.8-5.742-12.8-12.8v-90.3c0-7.058,5.742-12.8,12.8-12.8h126.9
				c7.058,0,12.8,5.742,12.8,12.8v90.3C204.25,184.418,198.508,190.16,191.45,190.16z M64.55,78.26c-4.853,0-8.8,3.948-8.8,8.8v90.3
				c0,4.852,3.947,8.8,8.8,8.8h126.9c4.853,0,8.8-3.948,8.8-8.8v-90.3c0-4.852-3.947-8.8-8.8-8.8H64.55z"/>
		</g>
	</g>
	<g>
		<g>
			<path class="st1" d="M128,182.66c-25.254,0-45.8-20.546-45.8-45.8c0-25.254,20.546-45.8,45.8-45.8s45.8,20.546,45.8,45.8
				C173.8,162.114,153.254,182.66,128,182.66z M128,95.06c-23.049,0-41.8,18.751-41.8,41.8c0,23.048,18.751,41.8,41.8,41.8
				s41.8-18.751,41.8-41.8C169.8,113.812,151.049,95.06,128,95.06z"/>
		</g>
	</g>
	<g>
		<g>
			<path class="st5" d="M150.983,60.404c-1.675-2.467-4.464-3.944-7.446-3.944c-11.245,0-19.83,0-31.075,0
				c-2.982,0-5.77,1.477-7.446,3.944L94.25,76.26v5.7c0,1.988,1.612,3.6,3.6,3.6h60.3c1.988,0,3.6-1.612,3.6-3.6v-5.7
				L150.983,60.404z"/>
		</g>
	</g>
	<g>
		<g>
			<path class="st7" d="M106.143,69.96l4.085-6.017c0.503-0.741,1.339-1.183,2.234-1.183h31.075c0.896,0,1.731,0.442,2.234,1.183
				l4.085,6.017H106.143z"/>
		</g>
	</g>
	<g>
		<g>
			<path class="st1" d="M158.15,87.56H97.85c-3.088,0-5.6-2.512-5.6-5.6v-5.7c0-0.401,0.12-0.792,0.346-1.124l10.767-15.856
				c2.05-3.019,5.452-4.82,9.101-4.82h31.074c3.648,0,7.051,1.802,9.101,4.82c0,0,0,0,0,0l10.767,15.856
				c0.226,0.332,0.346,0.723,0.346,1.124v5.7C163.75,85.048,161.238,87.56,158.15,87.56z M96.25,76.875v5.085
				c0,0.882,0.718,1.6,1.6,1.6h60.301c0.882,0,1.6-0.718,1.6-1.6v-5.085l-10.421-15.347c-1.306-1.921-3.471-3.067-5.792-3.067
				h-31.074c-2.322,0-4.487,1.147-5.792,3.068L96.25,76.875z"/>
		</g>
	</g>
	<g>
		<g>
			<path class="st1" d="M149.856,71.96h-43.713c-0.74,0-1.421-0.409-1.768-1.063c-0.347-0.655-0.303-1.447,0.113-2.06l4.085-6.017
				c0.875-1.29,2.328-2.06,3.889-2.06h31.074c1.561,0,3.014,0.77,3.89,2.06l4.084,6.017c0.416,0.613,0.46,1.405,0.113,2.06
				C151.277,71.551,150.597,71.96,149.856,71.96z M109.919,67.96h36.162l-1.964-2.894c-0.131-0.192-0.348-0.307-0.58-0.307h-31.074
				c-0.232,0-0.449,0.114-0.579,0.306L109.919,67.96z"/>
		</g>
	</g>
	<g>
		<g>
			<path class="st1" d="M128,171.86c-19.299,0-35-15.701-35-35s15.701-35,35-35s35,15.701,35,35S147.299,171.86,128,171.86z
				 M128,105.86c-17.094,0-31,13.907-31,31s13.906,31,31,31s31-13.907,31-31S145.094,105.86,128,105.86z"/>
		</g>
	</g>
</g>
</svg>
